<?xml version="1.0" encoding="utf-8" standalone="no"?>
<!DOCTYPE svg PUBLIC "-//W3C//DTD SVG 1.1//EN"
  "http://www.w3.org/Graphics/SVG/1.1/DTD/svg11.dtd">
<!-- Created with matplotlib (https://matplotlib.org/) -->
<svg height="288pt" version="1.1" viewBox="0 0 432 288" width="432pt" xmlns="http://www.w3.org/2000/svg" xmlns:xlink="http://www.w3.org/1999/xlink">
 <defs>
  <style type="text/css">
*{stroke-linecap:butt;stroke-linejoin:round;}
  </style>
 </defs>
 <g id="figure_1">
  <g id="patch_1">
   <path d="M 0 288 
L 432 288 
L 432 0 
L 0 0 
z
" style="fill:#ffffff;"/>
  </g>
  <g id="axes_1">
   <g id="patch_2">
    <path d="M 56.405 226.72 
L 412.435869 226.72 
L 412.435869 33.28 
L 56.405 33.28 
z
" style="fill:#ffffff;"/>
   </g>
   <g id="matplotlib.axis_1">
    <g id="xtick_1">
     <g id="line2d_1">
      <defs>
       <path d="M 0 0 
L 0 3.5 
" id="m568c9f7955" style="stroke:#000000;stroke-width:0.8;"/>
      </defs>
      <g>
       <use style="stroke:#000000;stroke-width:0.8;" x="72.588221" xlink:href="#m568c9f7955" y="226.72"/>
      </g>
     </g>
     <g id="text_1">
      <text style="font-family:DejaVu Sans;font-size:16px;font-style:normal;font-weight:normal;text-anchor:middle;" transform="rotate(-0, 72.588221, 245.8775)" x="72.588221" y="245.8775">0</text>
     </g>
    </g>
    <g id="xtick_2">
     <g id="line2d_2">
      <g>
       <use style="stroke:#000000;stroke-width:0.8;" x="127.839815" xlink:href="#m568c9f7955" y="226.72"/>
      </g>
     </g>
     <g id="text_2">
      <text style="font-family:DejaVu Sans;font-size:16px;font-style:normal;font-weight:normal;text-anchor:middle;" transform="rotate(-0, 127.839815, 245.8775)" x="127.839815" y="245.8775">5</text>
     </g>
    </g>
    <g id="xtick_3">
     <g id="line2d_3">
      <g>
       <use style="stroke:#000000;stroke-width:0.8;" x="183.091408" xlink:href="#m568c9f7955" y="226.72"/>
      </g>
     </g>
     <g id="text_3">
      <text style="font-family:DejaVu Sans;font-size:16px;font-style:normal;font-weight:normal;text-anchor:middle;" transform="rotate(-0, 183.091408, 245.8775)" x="183.091408" y="245.8775">10</text>
     </g>
    </g>
    <g id="xtick_4">
     <g id="line2d_4">
      <g>
       <use style="stroke:#000000;stroke-width:0.8;" x="238.343002" xlink:href="#m568c9f7955" y="226.72"/>
      </g>
     </g>
     <g id="text_4">
      <text style="font-family:DejaVu Sans;font-size:16px;font-style:normal;font-weight:normal;text-anchor:middle;" transform="rotate(-0, 238.343002, 245.8775)" x="238.343002" y="245.8775">15</text>
     </g>
    </g>
    <g id="xtick_5">
     <g id="line2d_5">
      <g>
       <use style="stroke:#000000;stroke-width:0.8;" x="293.594595" xlink:href="#m568c9f7955" y="226.72"/>
      </g>
     </g>
     <g id="text_5">
      <text style="font-family:DejaVu Sans;font-size:16px;font-style:normal;font-weight:normal;text-anchor:middle;" transform="rotate(-0, 293.594595, 245.8775)" x="293.594595" y="245.8775">20</text>
     </g>
    </g>
    <g id="xtick_6">
     <g id="line2d_6">
      <g>
       <use style="stroke:#000000;stroke-width:0.8;" x="348.846189" xlink:href="#m568c9f7955" y="226.72"/>
      </g>
     </g>
     <g id="text_6">
      <text style="font-family:DejaVu Sans;font-size:16px;font-style:normal;font-weight:normal;text-anchor:middle;" transform="rotate(-0, 348.846189, 245.8775)" x="348.846189" y="245.8775">25</text>
     </g>
    </g>
    <g id="xtick_7">
     <g id="line2d_7">
      <g>
       <use style="stroke:#000000;stroke-width:0.8;" x="404.097782" xlink:href="#m568c9f7955" y="226.72"/>
      </g>
     </g>
     <g id="text_7">
      <text style="font-family:DejaVu Sans;font-size:16px;font-style:normal;font-weight:normal;text-anchor:middle;" transform="rotate(-0, 404.097782, 245.8775)" x="404.097782" y="245.8775">30</text>
     </g>
    </g>
    <g id="text_8">
     <text style="font-family:DejaVu Sans;font-size:18px;font-style:normal;font-weight:normal;text-anchor:middle;" transform="rotate(-0, 234.420434, 266.882187)" x="234.420434" y="266.882187">time (min)</text>
    </g>
   </g>
   <g id="matplotlib.axis_2">
    <g id="ytick_1">
     <g id="line2d_8">
      <defs>
       <path d="M 0 0 
L -3.5 0 
" id="m1c810e2dfa" style="stroke:#000000;stroke-width:0.8;"/>
      </defs>
      <g>
       <use style="stroke:#000000;stroke-width:0.8;" x="56.405" xlink:href="#m1c810e2dfa" y="200.959887"/>
      </g>
     </g>
     <g id="text_9">
      <text style="font-family:DejaVu Sans;font-size:16px;font-style:normal;font-weight:normal;text-anchor:end;" transform="rotate(-0, 49.405, 207.038637)" x="49.405" y="207.038637">0</text>
     </g>
    </g>
    <g id="ytick_2">
     <g id="line2d_9">
      <g>
       <use style="stroke:#000000;stroke-width:0.8;" x="56.405" xlink:href="#m1c810e2dfa" y="137.453106"/>
      </g>
     </g>
     <g id="text_10">
      <text style="font-family:DejaVu Sans;font-size:16px;font-style:normal;font-weight:normal;text-anchor:end;" transform="rotate(-0, 49.405, 143.531856)" x="49.405" y="143.531856">1</text>
     </g>
    </g>
    <g id="ytick_3">
     <g id="line2d_10">
      <g>
       <use style="stroke:#000000;stroke-width:0.8;" x="56.405" xlink:href="#m1c810e2dfa" y="73.946326"/>
      </g>
     </g>
     <g id="text_11">
      <text style="font-family:DejaVu Sans;font-size:16px;font-style:normal;font-weight:normal;text-anchor:end;" transform="rotate(-0, 49.405, 80.025076)" x="49.405" y="80.025076">2</text>
     </g>
    </g>
    <g id="text_12">
     <text style="font-family:DejaVu Sans;font-size:18px;font-style:normal;font-weight:normal;text-anchor:middle;" transform="rotate(-90, 31.481563, 130)" x="31.481563" y="130">displacement (µm)</text>
    </g>
   </g>
   <g id="LineCollection_1">
    <path clip-path="url(#p83b5f769c0)" d="M 188.182659 200.959887 
L 188.182659 42.072727 
" style="fill:none;stroke:#000000;stroke-width:1.5;"/>
   </g>
   <g id="line2d_11">
    <defs>
     <path d="M 0 3 
C 0.795609 3 1.55874 2.683901 2.12132 2.12132 
C 2.683901 1.55874 3 0.795609 3 0 
C 3 -0.795609 2.683901 -1.55874 2.12132 -2.12132 
C 1.55874 -2.683901 0.795609 -3 0 -3 
C -0.795609 -3 -1.55874 -2.683901 -2.12132 -2.12132 
C -2.683901 -1.55874 -3 -0.795609 -3 0 
C -3 0.795609 -2.683901 1.55874 -2.12132 2.12132 
C -1.55874 2.683901 -0.795609 3 0 3 
z
" id="m6bc26bc89c" style="stroke:#0000ff;"/>
    </defs>
    <g clip-path="url(#p83b5f769c0)">
     <use style="fill:#0000ff;stroke:#0000ff;" x="72.588221" xlink:href="#m6bc26bc89c" y="200.959887"/>
     <use style="fill:#0000ff;stroke:#0000ff;" x="84.147665" xlink:href="#m6bc26bc89c" y="198.609016"/>
     <use style="fill:#0000ff;stroke:#0000ff;" x="95.707109" xlink:href="#m6bc26bc89c" y="196.199896"/>
     <use style="fill:#0000ff;stroke:#0000ff;" x="107.266552" xlink:href="#m6bc26bc89c" y="192.749065"/>
     <use style="fill:#0000ff;stroke:#0000ff;" x="118.825996" xlink:href="#m6bc26bc89c" y="183.798896"/>
     <use style="fill:#0000ff;stroke:#0000ff;" x="130.38544" xlink:href="#m6bc26bc89c" y="184.123852"/>
     <use style="fill:#0000ff;stroke:#0000ff;" x="141.944884" xlink:href="#m6bc26bc89c" y="181.405818"/>
     <use style="fill:#0000ff;stroke:#0000ff;" x="153.504327" xlink:href="#m6bc26bc89c" y="181.733301"/>
     <use style="fill:#0000ff;stroke:#0000ff;" x="165.063771" xlink:href="#m6bc26bc89c" y="177.582765"/>
     <use style="fill:#0000ff;stroke:#0000ff;" x="176.623215" xlink:href="#m6bc26bc89c" y="175.24148"/>
     <use style="fill:#0000ff;stroke:#0000ff;" x="188.182659" xlink:href="#m6bc26bc89c" y="179.350673"/>
     <use style="fill:#0000ff;stroke:#0000ff;" x="199.742104" xlink:href="#m6bc26bc89c" y="172.555313"/>
     <use style="fill:#0000ff;stroke:#0000ff;" x="211.301548" xlink:href="#m6bc26bc89c" y="164.749405"/>
     <use style="fill:#0000ff;stroke:#0000ff;" x="222.860992" xlink:href="#m6bc26bc89c" y="144.828892"/>
     <use style="fill:#0000ff;stroke:#0000ff;" x="234.420435" xlink:href="#m6bc26bc89c" y="125.678791"/>
     <use style="fill:#0000ff;stroke:#0000ff;" x="245.979879" xlink:href="#m6bc26bc89c" y="126.491819"/>
     <use style="fill:#0000ff;stroke:#0000ff;" x="257.539323" xlink:href="#m6bc26bc89c" y="113.334489"/>
     <use style="fill:#0000ff;stroke:#0000ff;" x="269.098766" xlink:href="#m6bc26bc89c" y="112.13164"/>
     <use style="fill:#0000ff;stroke:#0000ff;" x="280.65821" xlink:href="#m6bc26bc89c" y="105.242652"/>
     <use style="fill:#0000ff;stroke:#0000ff;" x="292.217654" xlink:href="#m6bc26bc89c" y="102.081886"/>
     <use style="fill:#0000ff;stroke:#0000ff;" x="303.777098" xlink:href="#m6bc26bc89c" y="86.801741"/>
     <use style="fill:#0000ff;stroke:#0000ff;" x="315.336541" xlink:href="#m6bc26bc89c" y="79.650795"/>
     <use style="fill:#0000ff;stroke:#0000ff;" x="326.895985" xlink:href="#m6bc26bc89c" y="62.117903"/>
     <use style="fill:#0000ff;stroke:#0000ff;" x="338.455429" xlink:href="#m6bc26bc89c" y="66.310273"/>
     <use style="fill:#0000ff;stroke:#0000ff;" x="350.014872" xlink:href="#m6bc26bc89c" y="62.304727"/>
     <use style="fill:#0000ff;stroke:#0000ff;" x="361.574316" xlink:href="#m6bc26bc89c" y="65.957797"/>
     <use style="fill:#0000ff;stroke:#0000ff;" x="373.13376" xlink:href="#m6bc26bc89c" y="54.992879"/>
     <use style="fill:#0000ff;stroke:#0000ff;" x="384.693204" xlink:href="#m6bc26bc89c" y="55.607726"/>
     <use style="fill:#0000ff;stroke:#0000ff;" x="396.252647" xlink:href="#m6bc26bc89c" y="42.072727"/>
    </g>
   </g>
   <g id="line2d_12">
    <path clip-path="url(#p83b5f769c0)" d="M 72.588221 217.927273 
L 84.147665 211.707507 
L 95.707109 205.487742 
L 107.266552 199.267976 
L 118.825996 193.048211 
L 130.38544 186.828445 
L 141.944884 180.60868 
L 153.504327 174.388914 
L 165.063771 168.169149 
L 176.623215 161.949383 
L 188.182659 155.729618 
L 199.742104 149.509851 
L 211.301548 143.290086 
L 222.860992 137.07032 
L 234.420435 130.850555 
L 245.979879 124.630789 
L 257.539323 118.411024 
L 269.098766 112.191258 
L 280.65821 105.971493 
L 292.217654 99.751727 
L 303.777098 93.531962 
L 315.336541 87.312196 
L 326.895985 81.092431 
L 338.455429 74.872665 
L 350.014872 68.6529 
L 361.574316 62.433134 
L 373.13376 56.213369 
L 384.693204 49.993603 
L 396.252647 43.773838 
" style="fill:none;stroke:#ff0000;stroke-linecap:square;stroke-width:1.5;"/>
   </g>
   <g id="patch_3">
    <path d="M 56.405 226.72 
L 56.405 33.28 
" style="fill:none;stroke:#000000;stroke-linecap:square;stroke-linejoin:miter;stroke-width:0.8;"/>
   </g>
   <g id="patch_4">
    <path d="M 412.435869 226.72 
L 412.435869 33.28 
" style="fill:none;stroke:#000000;stroke-linecap:square;stroke-linejoin:miter;stroke-width:0.8;"/>
   </g>
   <g id="patch_5">
    <path d="M 56.405 226.72 
L 412.435869 226.72 
" style="fill:none;stroke:#000000;stroke-linecap:square;stroke-linejoin:miter;stroke-width:0.8;"/>
   </g>
   <g id="patch_6">
    <path d="M 56.405 33.28 
L 412.435869 33.28 
" style="fill:none;stroke:#000000;stroke-linecap:square;stroke-linejoin:miter;stroke-width:0.8;"/>
   </g>
   <g id="text_13">
    <text style="font-family:DejaVu Sans;font-size:12px;font-style:normal;font-weight:normal;text-anchor:middle;" transform="rotate(-0, 234.420434, 27.28)" x="234.420434" y="27.28">4.4.4M2003_bs_bcexp_bead4_dc_trackmate.csv_track4</text>
   </g>
   <g id="legend_1">
    <g id="patch_7">
     <path d="M 67.605 116.535 
L 219.735 116.535 
Q 222.935 116.535 222.935 113.335 
L 222.935 44.48 
Q 222.935 41.28 219.735 41.28 
L 67.605 41.28 
Q 64.405 41.28 64.405 44.48 
L 64.405 113.335 
Q 64.405 116.535 67.605 116.535 
z
" style="fill:#ffffff;opacity:0.8;stroke:#cccccc;stroke-linejoin:miter;"/>
    </g>
    <g id="line2d_13"/>
    <g id="line2d_14">
     <g>
      <use style="fill:#0000ff;stroke:#0000ff;" x="86.805" xlink:href="#m6bc26bc89c" y="54.2375"/>
     </g>
    </g>
    <g id="text_14">
     <text style="font-family:DejaVu Sans;font-size:16px;font-style:normal;font-weight:normal;text-anchor:start;" transform="rotate(-0, 115.605, 59.8375)" x="115.605" y="59.8375">original data</text>
    </g>
    <g id="line2d_15">
     <path d="M 70.805 77.7225 
L 102.805 77.7225 
" style="fill:none;stroke:#ff0000;stroke-linecap:square;stroke-width:1.5;"/>
    </g>
    <g id="line2d_16"/>
    <g id="text_15">
     <text style="font-family:DejaVu Sans;font-size:16px;font-style:normal;font-weight:normal;text-anchor:start;" transform="rotate(-0, 115.605, 83.3225)" x="115.605" y="83.3225">fitted line</text>
    </g>
    <g id="line2d_17">
     <path d="M 70.805 101.2075 
L 102.805 101.2075 
" style="fill:none;stroke:#000000;stroke-width:1.5;"/>
    </g>
    <g id="text_16">
     <text style="font-family:DejaVu Sans;font-size:16px;font-style:normal;font-weight:normal;text-anchor:start;" transform="rotate(-0, 115.605, 106.8075)" x="115.605" y="106.8075">inflection</text>
    </g>
   </g>
  </g>
 </g>
 <defs>
  <clipPath id="p83b5f769c0">
   <rect height="193.44" width="356.030869" x="56.405" y="33.28"/>
  </clipPath>
 </defs>
</svg>
