<?xml version="1.0" encoding="utf-8" standalone="no"?>
<!DOCTYPE svg PUBLIC "-//W3C//DTD SVG 1.1//EN"
  "http://www.w3.org/Graphics/SVG/1.1/DTD/svg11.dtd">
<!-- Created with matplotlib (https://matplotlib.org/) -->
<svg height="288pt" version="1.1" viewBox="0 0 432 288" width="432pt" xmlns="http://www.w3.org/2000/svg" xmlns:xlink="http://www.w3.org/1999/xlink">
 <defs>
  <style type="text/css">
*{stroke-linecap:butt;stroke-linejoin:round;}
  </style>
 </defs>
 <g id="figure_1">
  <g id="patch_1">
   <path d="M 0 288 
L 432 288 
L 432 0 
L 0 0 
z
" style="fill:#ffffff;"/>
  </g>
  <g id="axes_1">
   <g id="patch_2">
    <path d="M 56.405 226.72 
L 414.72 226.72 
L 414.72 33.28 
L 56.405 33.28 
z
" style="fill:#ffffff;"/>
   </g>
   <g id="matplotlib.axis_1">
    <g id="xtick_1">
     <g id="line2d_1">
      <defs>
       <path d="M 0 0 
L 0 3.5 
" id="m0fbbbea582" style="stroke:#000000;stroke-width:0.8;"/>
      </defs>
      <g>
       <use style="stroke:#000000;stroke-width:0.8;" x="72.692045" xlink:href="#m0fbbbea582" y="226.72"/>
      </g>
     </g>
     <g id="text_1">
      <text style="font-family:DejaVu Sans;font-size:16px;font-style:normal;font-weight:normal;text-anchor:middle;" transform="rotate(-0, 72.692045, 245.8775)" x="72.692045" y="245.8775">0</text>
     </g>
    </g>
    <g id="xtick_2">
     <g id="line2d_2">
      <g>
       <use style="stroke:#000000;stroke-width:0.8;" x="130.357592" xlink:href="#m0fbbbea582" y="226.72"/>
      </g>
     </g>
     <g id="text_2">
      <text style="font-family:DejaVu Sans;font-size:16px;font-style:normal;font-weight:normal;text-anchor:middle;" transform="rotate(-0, 130.357592, 245.8775)" x="130.357592" y="245.8775">5</text>
     </g>
    </g>
    <g id="xtick_3">
     <g id="line2d_3">
      <g>
       <use style="stroke:#000000;stroke-width:0.8;" x="188.023138" xlink:href="#m0fbbbea582" y="226.72"/>
      </g>
     </g>
     <g id="text_3">
      <text style="font-family:DejaVu Sans;font-size:16px;font-style:normal;font-weight:normal;text-anchor:middle;" transform="rotate(-0, 188.023138, 245.8775)" x="188.023138" y="245.8775">10</text>
     </g>
    </g>
    <g id="xtick_4">
     <g id="line2d_4">
      <g>
       <use style="stroke:#000000;stroke-width:0.8;" x="245.688684" xlink:href="#m0fbbbea582" y="226.72"/>
      </g>
     </g>
     <g id="text_4">
      <text style="font-family:DejaVu Sans;font-size:16px;font-style:normal;font-weight:normal;text-anchor:middle;" transform="rotate(-0, 245.688684, 245.8775)" x="245.688684" y="245.8775">15</text>
     </g>
    </g>
    <g id="xtick_5">
     <g id="line2d_5">
      <g>
       <use style="stroke:#000000;stroke-width:0.8;" x="303.354231" xlink:href="#m0fbbbea582" y="226.72"/>
      </g>
     </g>
     <g id="text_5">
      <text style="font-family:DejaVu Sans;font-size:16px;font-style:normal;font-weight:normal;text-anchor:middle;" transform="rotate(-0, 303.354231, 245.8775)" x="303.354231" y="245.8775">20</text>
     </g>
    </g>
    <g id="xtick_6">
     <g id="line2d_6">
      <g>
       <use style="stroke:#000000;stroke-width:0.8;" x="361.019777" xlink:href="#m0fbbbea582" y="226.72"/>
      </g>
     </g>
     <g id="text_6">
      <text style="font-family:DejaVu Sans;font-size:16px;font-style:normal;font-weight:normal;text-anchor:middle;" transform="rotate(-0, 361.019777, 245.8775)" x="361.019777" y="245.8775">25</text>
     </g>
    </g>
    <g id="text_7">
     <text style="font-family:DejaVu Sans;font-size:18px;font-style:normal;font-weight:normal;text-anchor:middle;" transform="rotate(-0, 235.5625, 266.882187)" x="235.5625" y="266.882187">time (min)</text>
    </g>
   </g>
   <g id="matplotlib.axis_2">
    <g id="ytick_1">
     <g id="line2d_7">
      <defs>
       <path d="M 0 0 
L -3.5 0 
" id="m0fb47524e2" style="stroke:#000000;stroke-width:0.8;"/>
      </defs>
      <g>
       <use style="stroke:#000000;stroke-width:0.8;" x="56.405" xlink:href="#m0fb47524e2" y="205.265451"/>
      </g>
     </g>
     <g id="text_8">
      <text style="font-family:DejaVu Sans;font-size:16px;font-style:normal;font-weight:normal;text-anchor:end;" transform="rotate(-0, 49.405, 211.344201)" x="49.405" y="211.344201">0</text>
     </g>
    </g>
    <g id="ytick_2">
     <g id="line2d_8">
      <g>
       <use style="stroke:#000000;stroke-width:0.8;" x="56.405" xlink:href="#m0fb47524e2" y="141.036155"/>
      </g>
     </g>
     <g id="text_9">
      <text style="font-family:DejaVu Sans;font-size:16px;font-style:normal;font-weight:normal;text-anchor:end;" transform="rotate(-0, 49.405, 147.114905)" x="49.405" y="147.114905">2</text>
     </g>
    </g>
    <g id="ytick_3">
     <g id="line2d_9">
      <g>
       <use style="stroke:#000000;stroke-width:0.8;" x="56.405" xlink:href="#m0fb47524e2" y="76.806858"/>
      </g>
     </g>
     <g id="text_10">
      <text style="font-family:DejaVu Sans;font-size:16px;font-style:normal;font-weight:normal;text-anchor:end;" transform="rotate(-0, 49.405, 82.885608)" x="49.405" y="82.885608">4</text>
     </g>
    </g>
    <g id="text_11">
     <text style="font-family:DejaVu Sans;font-size:18px;font-style:normal;font-weight:normal;text-anchor:middle;" transform="rotate(-90, 31.481563, 130)" x="31.481563" y="130">displacement (µm)</text>
    </g>
   </g>
   <g id="LineCollection_1">
    <path clip-path="url(#p666487488a)" d="M 145.078914 205.265451 
L 145.078914 61.207496 
" style="fill:none;stroke:#000000;stroke-width:1.5;"/>
   </g>
   <g id="line2d_10">
    <defs>
     <path d="M 0 3 
C 0.795609 3 1.55874 2.683901 2.12132 2.12132 
C 2.683901 1.55874 3 0.795609 3 0 
C 3 -0.795609 2.683901 -1.55874 2.12132 -2.12132 
C 1.55874 -2.683901 0.795609 -3 0 -3 
C -0.795609 -3 -1.55874 -2.683901 -2.12132 -2.12132 
C -2.683901 -1.55874 -3 -0.795609 -3 0 
C -3 0.795609 -2.683901 1.55874 -2.12132 2.12132 
C -1.55874 2.683901 -0.795609 3 0 3 
z
" id="m49b1084ba1" style="stroke:#0000ff;"/>
    </defs>
    <g clip-path="url(#p666487488a)">
     <use style="fill:#0000ff;stroke:#0000ff;" x="72.692045" xlink:href="#m49b1084ba1" y="205.265451"/>
     <use style="fill:#0000ff;stroke:#0000ff;" x="84.756523" xlink:href="#m49b1084ba1" y="201.50611"/>
     <use style="fill:#0000ff;stroke:#0000ff;" x="96.821002" xlink:href="#m49b1084ba1" y="202.257914"/>
     <use style="fill:#0000ff;stroke:#0000ff;" x="108.88548" xlink:href="#m49b1084ba1" y="199.989107"/>
     <use style="fill:#0000ff;stroke:#0000ff;" x="120.949958" xlink:href="#m49b1084ba1" y="204.424693"/>
     <use style="fill:#0000ff;stroke:#0000ff;" x="133.014436" xlink:href="#m49b1084ba1" y="203.584223"/>
     <use style="fill:#0000ff;stroke:#0000ff;" x="145.078914" xlink:href="#m49b1084ba1" y="203.715529"/>
     <use style="fill:#0000ff;stroke:#0000ff;" x="157.143392" xlink:href="#m49b1084ba1" y="192.590188"/>
     <use style="fill:#0000ff;stroke:#0000ff;" x="169.20787" xlink:href="#m49b1084ba1" y="178.220589"/>
     <use style="fill:#0000ff;stroke:#0000ff;" x="181.272348" xlink:href="#m49b1084ba1" y="176.10604"/>
     <use style="fill:#0000ff;stroke:#0000ff;" x="193.336826" xlink:href="#m49b1084ba1" y="171.100526"/>
     <use style="fill:#0000ff;stroke:#0000ff;" x="205.401306" xlink:href="#m49b1084ba1" y="138.006919"/>
     <use style="fill:#0000ff;stroke:#0000ff;" x="217.465784" xlink:href="#m49b1084ba1" y="127.025863"/>
     <use style="fill:#0000ff;stroke:#0000ff;" x="229.530262" xlink:href="#m49b1084ba1" y="108.830127"/>
     <use style="fill:#0000ff;stroke:#0000ff;" x="241.59474" xlink:href="#m49b1084ba1" y="99.769028"/>
     <use style="fill:#0000ff;stroke:#0000ff;" x="253.659218" xlink:href="#m49b1084ba1" y="93.698585"/>
     <use style="fill:#0000ff;stroke:#0000ff;" x="265.723696" xlink:href="#m49b1084ba1" y="96.446933"/>
     <use style="fill:#0000ff;stroke:#0000ff;" x="277.788174" xlink:href="#m49b1084ba1" y="90.626471"/>
     <use style="fill:#0000ff;stroke:#0000ff;" x="289.852652" xlink:href="#m49b1084ba1" y="88.777357"/>
     <use style="fill:#0000ff;stroke:#0000ff;" x="301.91713" xlink:href="#m49b1084ba1" y="84.236859"/>
     <use style="fill:#0000ff;stroke:#0000ff;" x="313.981608" xlink:href="#m49b1084ba1" y="82.182221"/>
     <use style="fill:#0000ff;stroke:#0000ff;" x="326.046086" xlink:href="#m49b1084ba1" y="81.515531"/>
     <use style="fill:#0000ff;stroke:#0000ff;" x="338.110564" xlink:href="#m49b1084ba1" y="73.408604"/>
     <use style="fill:#0000ff;stroke:#0000ff;" x="350.175042" xlink:href="#m49b1084ba1" y="69.812755"/>
     <use style="fill:#0000ff;stroke:#0000ff;" x="362.23952" xlink:href="#m49b1084ba1" y="72.162697"/>
     <use style="fill:#0000ff;stroke:#0000ff;" x="374.303998" xlink:href="#m49b1084ba1" y="67.462933"/>
     <use style="fill:#0000ff;stroke:#0000ff;" x="386.368477" xlink:href="#m49b1084ba1" y="66.069247"/>
     <use style="fill:#0000ff;stroke:#0000ff;" x="398.432955" xlink:href="#m49b1084ba1" y="61.207496"/>
    </g>
   </g>
   <g id="line2d_11">
    <path clip-path="url(#p666487488a)" d="M 72.692045 217.927273 
L 84.756523 211.414141 
L 96.821002 204.90101 
L 108.88548 198.387879 
L 120.949958 191.874748 
L 133.014436 185.361616 
L 145.078914 178.848485 
L 157.143392 172.335354 
L 169.20787 165.822223 
L 181.272348 159.309091 
L 193.336826 152.79596 
L 205.401306 146.282828 
L 217.465784 139.769696 
L 229.530262 133.256565 
L 241.59474 126.743434 
L 253.659218 120.230303 
L 265.723696 113.717171 
L 277.788174 107.20404 
L 289.852652 100.690909 
L 301.91713 94.177777 
L 313.981608 87.664646 
L 326.046086 81.151515 
L 338.110564 74.638384 
L 350.175042 68.125252 
L 362.23952 61.612121 
L 374.303998 55.09899 
L 386.368477 48.585859 
L 398.432955 42.072727 
" style="fill:none;stroke:#ff0000;stroke-linecap:square;stroke-width:1.5;"/>
   </g>
   <g id="patch_3">
    <path d="M 56.405 226.72 
L 56.405 33.28 
" style="fill:none;stroke:#000000;stroke-linecap:square;stroke-linejoin:miter;stroke-width:0.8;"/>
   </g>
   <g id="patch_4">
    <path d="M 414.72 226.72 
L 414.72 33.28 
" style="fill:none;stroke:#000000;stroke-linecap:square;stroke-linejoin:miter;stroke-width:0.8;"/>
   </g>
   <g id="patch_5">
    <path d="M 56.405 226.72 
L 414.72 226.72 
" style="fill:none;stroke:#000000;stroke-linecap:square;stroke-linejoin:miter;stroke-width:0.8;"/>
   </g>
   <g id="patch_6">
    <path d="M 56.405 33.28 
L 414.72 33.28 
" style="fill:none;stroke:#000000;stroke-linecap:square;stroke-linejoin:miter;stroke-width:0.8;"/>
   </g>
   <g id="text_12">
    <text style="font-family:DejaVu Sans;font-size:12px;font-style:normal;font-weight:normal;text-anchor:middle;" transform="rotate(-0, 235.5625, 27.28)" x="235.5625" y="27.28">4.4.4M2003_bs_bcexp_bead7_dc_trackmate.csv_track3</text>
   </g>
   <g id="legend_1">
    <g id="patch_7">
     <path d="M 67.605 116.535 
L 219.735 116.535 
Q 222.935 116.535 222.935 113.335 
L 222.935 44.48 
Q 222.935 41.28 219.735 41.28 
L 67.605 41.28 
Q 64.405 41.28 64.405 44.48 
L 64.405 113.335 
Q 64.405 116.535 67.605 116.535 
z
" style="fill:#ffffff;opacity:0.8;stroke:#cccccc;stroke-linejoin:miter;"/>
    </g>
    <g id="line2d_12"/>
    <g id="line2d_13">
     <g>
      <use style="fill:#0000ff;stroke:#0000ff;" x="86.805" xlink:href="#m49b1084ba1" y="54.2375"/>
     </g>
    </g>
    <g id="text_13">
     <text style="font-family:DejaVu Sans;font-size:16px;font-style:normal;font-weight:normal;text-anchor:start;" transform="rotate(-0, 115.605, 59.8375)" x="115.605" y="59.8375">original data</text>
    </g>
    <g id="line2d_14">
     <path d="M 70.805 77.7225 
L 102.805 77.7225 
" style="fill:none;stroke:#ff0000;stroke-linecap:square;stroke-width:1.5;"/>
    </g>
    <g id="line2d_15"/>
    <g id="text_14">
     <text style="font-family:DejaVu Sans;font-size:16px;font-style:normal;font-weight:normal;text-anchor:start;" transform="rotate(-0, 115.605, 83.3225)" x="115.605" y="83.3225">fitted line</text>
    </g>
    <g id="line2d_16">
     <path d="M 70.805 101.2075 
L 102.805 101.2075 
" style="fill:none;stroke:#000000;stroke-width:1.5;"/>
    </g>
    <g id="text_15">
     <text style="font-family:DejaVu Sans;font-size:16px;font-style:normal;font-weight:normal;text-anchor:start;" transform="rotate(-0, 115.605, 106.8075)" x="115.605" y="106.8075">inflection</text>
    </g>
   </g>
  </g>
 </g>
 <defs>
  <clipPath id="p666487488a">
   <rect height="193.44" width="358.315" x="56.405" y="33.28"/>
  </clipPath>
 </defs>
</svg>
