<?xml version="1.0" encoding="utf-8" standalone="no"?>
<!DOCTYPE svg PUBLIC "-//W3C//DTD SVG 1.1//EN"
  "http://www.w3.org/Graphics/SVG/1.1/DTD/svg11.dtd">
<svg xmlns:xlink="http://www.w3.org/1999/xlink" width="460.8pt" height="345.6pt" viewBox="0 0 460.8 345.6" xmlns="http://www.w3.org/2000/svg" version="1.1">
 <metadata>
  <rdf:RDF xmlns:dc="http://purl.org/dc/elements/1.1/" xmlns:cc="http://creativecommons.org/ns#" xmlns:rdf="http://www.w3.org/1999/02/22-rdf-syntax-ns#">
   <cc:Work>
    <dc:type rdf:resource="http://purl.org/dc/dcmitype/StillImage"/>
    <dc:date>2022-09-01T14:22:10.713524</dc:date>
    <dc:format>image/svg+xml</dc:format>
    <dc:creator>
     <cc:Agent>
      <dc:title>Matplotlib v3.5.2, https://matplotlib.org/</dc:title>
     </cc:Agent>
    </dc:creator>
   </cc:Work>
  </rdf:RDF>
 </metadata>
 <defs>
  <style type="text/css">*{stroke-linejoin: round; stroke-linecap: butt}</style>
 </defs>
 <g id="figure_1">
  <g id="patch_1">
   <path d="M 0 345.6 
L 460.8 345.6 
L 460.8 0 
L 0 0 
z
" style="fill: #ffffff"/>
  </g>
  <g id="axes_1">
   <g id="patch_2">
    <path d="M 57.6 307.584 
L 414.72 307.584 
L 414.72 41.472 
L 57.6 41.472 
z
" style="fill: #ffffff"/>
   </g>
   <g id="patch_3">
    <path d="M 79.92 307.584 
L 102.24 307.584 
L 102.24 288.261447 
L 79.92 288.261447 
z
" clip-path="url(#pa75f819b38)" style="fill: #1f77b4"/>
   </g>
   <g id="patch_4">
    <path d="M 169.2 307.584 
L 191.52 307.584 
L 191.52 242.291452 
L 169.2 242.291452 
z
" clip-path="url(#pa75f819b38)" style="fill: #1f77b4"/>
   </g>
   <g id="patch_5">
    <path d="M 258.48 307.584 
L 280.8 307.584 
L 280.8 54.144 
L 258.48 54.144 
z
" clip-path="url(#pa75f819b38)" style="fill: #1f77b4"/>
   </g>
   <g id="patch_6">
    <path d="M 347.76 307.584 
L 370.08 307.584 
L 370.08 307.584 
L 347.76 307.584 
z
" clip-path="url(#pa75f819b38)" style="fill: #1f77b4"/>
   </g>
   <g id="patch_7">
    <path d="M 102.24 307.584 
L 124.56 307.584 
L 124.56 294.702298 
L 102.24 294.702298 
z
" clip-path="url(#pa75f819b38)" style="fill: #ff7f0e"/>
   </g>
   <g id="patch_8">
    <path d="M 191.52 307.584 
L 213.84 307.584 
L 213.84 117.642039 
L 191.52 117.642039 
z
" clip-path="url(#pa75f819b38)" style="fill: #ff7f0e"/>
   </g>
   <g id="patch_9">
    <path d="M 280.8 307.584 
L 303.12 307.584 
L 303.12 258.303999 
L 280.8 258.303999 
z
" clip-path="url(#pa75f819b38)" style="fill: #ff7f0e"/>
   </g>
   <g id="patch_10">
    <path d="M 370.08 307.584 
L 392.4 307.584 
L 392.4 307.584 
L 370.08 307.584 
z
" clip-path="url(#pa75f819b38)" style="fill: #ff7f0e"/>
   </g>
   <g id="matplotlib.axis_1">
    <g id="xtick_1">
     <g id="line2d_1">
      <defs>
       <path id="mf0543f5fd8" d="M 0 0 
L 0 3.5 
" style="stroke: #000000; stroke-width: 0.8"/>
      </defs>
      <g>
       <use xlink:href="#mf0543f5fd8" x="102.24" y="307.584" style="stroke: #000000; stroke-width: 0.8"/>
      </g>
     </g>
     <g id="text_1">
      <text style="font: 16px 'sans-serif'" transform="translate(106.655 324.764)rotate(-90)">1</text>
     </g>
    </g>
    <g id="xtick_2">
     <g id="line2d_2">
      <g>
       <use xlink:href="#mf0543f5fd8" x="191.52" y="307.584" style="stroke: #000000; stroke-width: 0.8"/>
      </g>
     </g>
     <g id="text_2">
      <text style="font: 16px 'sans-serif'" transform="translate(195.935 324.764)rotate(-90)">2</text>
     </g>
    </g>
    <g id="xtick_3">
     <g id="line2d_3">
      <g>
       <use xlink:href="#mf0543f5fd8" x="280.8" y="307.584" style="stroke: #000000; stroke-width: 0.8"/>
      </g>
     </g>
     <g id="text_3">
      <text style="font: 16px 'sans-serif'" transform="translate(285.215 324.764)rotate(-90)">3</text>
     </g>
    </g>
    <g id="xtick_4">
     <g id="line2d_4">
      <g>
       <use xlink:href="#mf0543f5fd8" x="370.08" y="307.584" style="stroke: #000000; stroke-width: 0.8"/>
      </g>
     </g>
     <g id="text_4">
      <text style="font: 16px 'sans-serif'" transform="translate(374.495 324.764)rotate(-90)">4</text>
     </g>
    </g>
    <g id="text_5">
     <text style="font: 18px 'sans-serif'; text-anchor: middle" x="236.16" y="342.441187" transform="rotate(-0, 236.16, 342.441187)">sample id</text>
    </g>
   </g>
   <g id="matplotlib.axis_2">
    <g id="ytick_1">
     <g id="line2d_5">
      <defs>
       <path id="ma17fcf9f4d" d="M 0 0 
L -3.5 0 
" style="stroke: #000000; stroke-width: 0.8"/>
      </defs>
      <g>
       <use xlink:href="#ma17fcf9f4d" x="57.6" y="307.584" style="stroke: #000000; stroke-width: 0.8"/>
      </g>
     </g>
     <g id="text_6">
      <text style="font: 16px 'sans-serif'; text-anchor: end" x="50.6" y="313.66275" transform="rotate(-0, 50.6, 313.66275)">0.0</text>
     </g>
    </g>
    <g id="ytick_2">
     <g id="line2d_6">
      <g>
       <use xlink:href="#ma17fcf9f4d" x="57.6" y="247.04" style="stroke: #000000; stroke-width: 0.8"/>
      </g>
     </g>
     <g id="text_7">
      <text style="font: 16px 'sans-serif'; text-anchor: end" x="50.6" y="253.11875" transform="rotate(-0, 50.6, 253.11875)">0.2</text>
     </g>
    </g>
    <g id="ytick_3">
     <g id="line2d_7">
      <g>
       <use xlink:href="#ma17fcf9f4d" x="57.6" y="186.496" style="stroke: #000000; stroke-width: 0.8"/>
      </g>
     </g>
     <g id="text_8">
      <text style="font: 16px 'sans-serif'; text-anchor: end" x="50.6" y="192.57475" transform="rotate(-0, 50.6, 192.57475)">0.4</text>
     </g>
    </g>
    <g id="ytick_4">
     <g id="line2d_8">
      <g>
       <use xlink:href="#ma17fcf9f4d" x="57.6" y="125.951999" style="stroke: #000000; stroke-width: 0.8"/>
      </g>
     </g>
     <g id="text_9">
      <text style="font: 16px 'sans-serif'; text-anchor: end" x="50.6" y="132.030749" transform="rotate(-0, 50.6, 132.030749)">0.6</text>
     </g>
    </g>
    <g id="ytick_5">
     <g id="line2d_9">
      <g>
       <use xlink:href="#ma17fcf9f4d" x="57.6" y="65.407999" style="stroke: #000000; stroke-width: 0.8"/>
      </g>
     </g>
     <g id="text_10">
      <text style="font: 16px 'sans-serif'; text-anchor: end" x="50.6" y="71.486749" transform="rotate(-0, 50.6, 71.486749)">0.8</text>
     </g>
    </g>
   </g>
   <g id="patch_11">
    <path d="M 57.6 307.584 
L 57.6 41.472 
" style="fill: none; stroke: #000000; stroke-width: 0.8; stroke-linejoin: miter; stroke-linecap: square"/>
   </g>
   <g id="patch_12">
    <path d="M 414.72 307.584 
L 414.72 41.472 
" style="fill: none; stroke: #000000; stroke-width: 0.8; stroke-linejoin: miter; stroke-linecap: square"/>
   </g>
   <g id="patch_13">
    <path d="M 57.6 307.584 
L 414.72 307.584 
" style="fill: none; stroke: #000000; stroke-width: 0.8; stroke-linejoin: miter; stroke-linecap: square"/>
   </g>
   <g id="patch_14">
    <path d="M 57.6 41.472 
L 414.72 41.472 
" style="fill: none; stroke: #000000; stroke-width: 0.8; stroke-linejoin: miter; stroke-linecap: square"/>
   </g>
   <g id="legend_1">
    <g id="patch_15">
     <path d="M 149.61 101.242 
L 403.52 101.242 
Q 406.72 101.242 406.72 98.042 
L 406.72 52.672 
Q 406.72 49.472 403.52 49.472 
L 149.61 49.472 
Q 146.41 49.472 146.41 52.672 
L 146.41 98.042 
Q 146.41 101.242 149.61 101.242 
z
" style="fill: #ffffff; opacity: 0.8; stroke: #cccccc; stroke-linejoin: miter"/>
    </g>
    <g id="patch_16">
     <path d="M 152.81 68.0295 
L 184.81 68.0295 
L 184.81 56.8295 
L 152.81 56.8295 
z
" style="fill: #1f77b4"/>
    </g>
    <g id="text_11">
     <text style="font: 16px 'sans-serif'; text-anchor: start" x="197.61" y="68.0295" transform="rotate(-0, 197.61, 68.0295)">within 100 nm per bead</text>
    </g>
    <g id="patch_17">
     <path d="M 152.81 91.5145 
L 184.81 91.5145 
L 184.81 80.3145 
L 152.81 80.3145 
z
" style="fill: #ff7f0e"/>
    </g>
    <g id="text_12">
     <text style="font: 16px 'sans-serif'; text-anchor: start" x="197.61" y="91.5145" transform="rotate(-0, 197.61, 91.5145)">beyond 100 nm per bead</text>
    </g>
   </g>
  </g>
 </g>
 <defs>
  <clipPath id="pa75f819b38">
   <rect x="57.6" y="41.472" width="357.12" height="266.112"/>
  </clipPath>
 </defs>
</svg>
