<?xml version="1.0" encoding="utf-8" standalone="no"?>
<!DOCTYPE svg PUBLIC "-//W3C//DTD SVG 1.1//EN"
  "http://www.w3.org/Graphics/SVG/1.1/DTD/svg11.dtd">
<!-- Created with matplotlib (https://matplotlib.org/) -->
<svg height="288pt" version="1.1" viewBox="0 0 432 288" width="432pt" xmlns="http://www.w3.org/2000/svg" xmlns:xlink="http://www.w3.org/1999/xlink">
 <defs>
  <style type="text/css">
*{stroke-linecap:butt;stroke-linejoin:round;}
  </style>
 </defs>
 <g id="figure_1">
  <g id="patch_1">
   <path d="M 0 288 
L 432 288 
L 432 0 
L 0 0 
z
" style="fill:#ffffff;"/>
  </g>
  <g id="axes_1">
   <g id="patch_2">
    <path d="M 56.405 226.72 
L 409.8075 226.72 
L 409.8075 33.28 
L 56.405 33.28 
z
" style="fill:#ffffff;"/>
   </g>
   <g id="matplotlib.axis_1">
    <g id="xtick_1">
     <g id="line2d_1">
      <defs>
       <path d="M 0 0 
L 0 3.5 
" id="mcfb4382030" style="stroke:#000000;stroke-width:0.8;"/>
      </defs>
      <g>
       <use style="stroke:#000000;stroke-width:0.8;" x="72.46875" xlink:href="#mcfb4382030" y="226.72"/>
      </g>
     </g>
     <g id="text_1">
      <text style="font-family:DejaVu Sans;font-size:16px;font-style:normal;font-weight:normal;text-anchor:middle;" transform="rotate(-0, 72.46875, 245.8775)" x="72.46875" y="245.8775">0</text>
     </g>
    </g>
    <g id="xtick_2">
     <g id="line2d_2">
      <g>
       <use style="stroke:#000000;stroke-width:0.8;" x="150.669752" xlink:href="#mcfb4382030" y="226.72"/>
      </g>
     </g>
     <g id="text_2">
      <text style="font-family:DejaVu Sans;font-size:16px;font-style:normal;font-weight:normal;text-anchor:middle;" transform="rotate(-0, 150.669752, 245.8775)" x="150.669752" y="245.8775">5</text>
     </g>
    </g>
    <g id="xtick_3">
     <g id="line2d_3">
      <g>
       <use style="stroke:#000000;stroke-width:0.8;" x="228.870753" xlink:href="#mcfb4382030" y="226.72"/>
      </g>
     </g>
     <g id="text_3">
      <text style="font-family:DejaVu Sans;font-size:16px;font-style:normal;font-weight:normal;text-anchor:middle;" transform="rotate(-0, 228.870753, 245.8775)" x="228.870753" y="245.8775">10</text>
     </g>
    </g>
    <g id="xtick_4">
     <g id="line2d_4">
      <g>
       <use style="stroke:#000000;stroke-width:0.8;" x="307.071755" xlink:href="#mcfb4382030" y="226.72"/>
      </g>
     </g>
     <g id="text_4">
      <text style="font-family:DejaVu Sans;font-size:16px;font-style:normal;font-weight:normal;text-anchor:middle;" transform="rotate(-0, 307.071755, 245.8775)" x="307.071755" y="245.8775">15</text>
     </g>
    </g>
    <g id="xtick_5">
     <g id="line2d_5">
      <g>
       <use style="stroke:#000000;stroke-width:0.8;" x="385.272757" xlink:href="#mcfb4382030" y="226.72"/>
      </g>
     </g>
     <g id="text_5">
      <text style="font-family:DejaVu Sans;font-size:16px;font-style:normal;font-weight:normal;text-anchor:middle;" transform="rotate(-0, 385.272757, 245.8775)" x="385.272757" y="245.8775">20</text>
     </g>
    </g>
    <g id="text_6">
     <text style="font-family:DejaVu Sans;font-size:18px;font-style:normal;font-weight:normal;text-anchor:middle;" transform="rotate(-0, 233.10625, 266.882187)" x="233.10625" y="266.882187">time (min)</text>
    </g>
   </g>
   <g id="matplotlib.axis_2">
    <g id="ytick_1">
     <g id="line2d_6">
      <defs>
       <path d="M 0 0 
L -3.5 0 
" id="m8748f8688a" style="stroke:#000000;stroke-width:0.8;"/>
      </defs>
      <g>
       <use style="stroke:#000000;stroke-width:0.8;" x="56.405" xlink:href="#m8748f8688a" y="214.535833"/>
      </g>
     </g>
     <g id="text_7">
      <text style="font-family:DejaVu Sans;font-size:16px;font-style:normal;font-weight:normal;text-anchor:end;" transform="rotate(-0, 49.405, 220.614583)" x="49.405" y="220.614583">0</text>
     </g>
    </g>
    <g id="ytick_2">
     <g id="line2d_7">
      <g>
       <use style="stroke:#000000;stroke-width:0.8;" x="56.405" xlink:href="#m8748f8688a" y="160.759171"/>
      </g>
     </g>
     <g id="text_8">
      <text style="font-family:DejaVu Sans;font-size:16px;font-style:normal;font-weight:normal;text-anchor:end;" transform="rotate(-0, 49.405, 166.837921)" x="49.405" y="166.837921">2</text>
     </g>
    </g>
    <g id="ytick_3">
     <g id="line2d_8">
      <g>
       <use style="stroke:#000000;stroke-width:0.8;" x="56.405" xlink:href="#m8748f8688a" y="106.98251"/>
      </g>
     </g>
     <g id="text_9">
      <text style="font-family:DejaVu Sans;font-size:16px;font-style:normal;font-weight:normal;text-anchor:end;" transform="rotate(-0, 49.405, 113.06126)" x="49.405" y="113.06126">4</text>
     </g>
    </g>
    <g id="ytick_4">
     <g id="line2d_9">
      <g>
       <use style="stroke:#000000;stroke-width:0.8;" x="56.405" xlink:href="#m8748f8688a" y="53.205848"/>
      </g>
     </g>
     <g id="text_10">
      <text style="font-family:DejaVu Sans;font-size:16px;font-style:normal;font-weight:normal;text-anchor:end;" transform="rotate(-0, 49.405, 59.284598)" x="49.405" y="59.284598">6</text>
     </g>
    </g>
    <g id="text_11">
     <text style="font-family:DejaVu Sans;font-size:18px;font-style:normal;font-weight:normal;text-anchor:middle;" transform="rotate(-90, 31.481563, 130)" x="31.481563" y="130">displacement (µm)</text>
    </g>
   </g>
   <g id="LineCollection_1">
    <path clip-path="url(#paf9bc049bc)" d="M 145.485807 214.535833 
L 145.485807 42.072727 
" style="fill:none;stroke:#000000;stroke-width:1.5;"/>
   </g>
   <g id="line2d_10">
    <defs>
     <path d="M 0 3 
C 0.795609 3 1.55874 2.683901 2.12132 2.12132 
C 2.683901 1.55874 3 0.795609 3 0 
C 3 -0.795609 2.683901 -1.55874 2.12132 -2.12132 
C 1.55874 -2.683901 0.795609 -3 0 -3 
C -0.795609 -3 -1.55874 -2.683901 -2.12132 -2.12132 
C -2.683901 -1.55874 -3 -0.795609 -3 0 
C -3 0.795609 -2.683901 1.55874 -2.12132 2.12132 
C -1.55874 2.683901 -0.795609 3 0 3 
z
" id="mea3f4fcf96" style="stroke:#0000ff;"/>
    </defs>
    <g clip-path="url(#paf9bc049bc)">
     <use style="fill:#0000ff;stroke:#0000ff;" x="72.46875" xlink:href="#mea3f4fcf96" y="214.535833"/>
     <use style="fill:#0000ff;stroke:#0000ff;" x="79.770378" xlink:href="#mea3f4fcf96" y="214.213173"/>
     <use style="fill:#0000ff;stroke:#0000ff;" x="87.072266" xlink:href="#mea3f4fcf96" y="212.014487"/>
     <use style="fill:#0000ff;stroke:#0000ff;" x="94.373893" xlink:href="#mea3f4fcf96" y="211.639746"/>
     <use style="fill:#0000ff;stroke:#0000ff;" x="101.675521" xlink:href="#mea3f4fcf96" y="211.067238"/>
     <use style="fill:#0000ff;stroke:#0000ff;" x="108.977148" xlink:href="#mea3f4fcf96" y="211.324394"/>
     <use style="fill:#0000ff;stroke:#0000ff;" x="116.279037" xlink:href="#mea3f4fcf96" y="212.97631"/>
     <use style="fill:#0000ff;stroke:#0000ff;" x="123.580664" xlink:href="#mea3f4fcf96" y="212.431488"/>
     <use style="fill:#0000ff;stroke:#0000ff;" x="130.882292" xlink:href="#mea3f4fcf96" y="214.079523"/>
     <use style="fill:#0000ff;stroke:#0000ff;" x="138.18418" xlink:href="#mea3f4fcf96" y="200.783273"/>
     <use style="fill:#0000ff;stroke:#0000ff;" x="145.485807" xlink:href="#mea3f4fcf96" y="212.858165"/>
     <use style="fill:#0000ff;stroke:#0000ff;" x="152.787435" xlink:href="#mea3f4fcf96" y="200.340501"/>
     <use style="fill:#0000ff;stroke:#0000ff;" x="160.089323" xlink:href="#mea3f4fcf96" y="186.031958"/>
     <use style="fill:#0000ff;stroke:#0000ff;" x="167.390951" xlink:href="#mea3f4fcf96" y="185.21998"/>
     <use style="fill:#0000ff;stroke:#0000ff;" x="174.692578" xlink:href="#mea3f4fcf96" y="169.255972"/>
     <use style="fill:#0000ff;stroke:#0000ff;" x="181.994206" xlink:href="#mea3f4fcf96" y="164.135882"/>
     <use style="fill:#0000ff;stroke:#0000ff;" x="189.296094" xlink:href="#mea3f4fcf96" y="149.751777"/>
     <use style="fill:#0000ff;stroke:#0000ff;" x="196.597721" xlink:href="#mea3f4fcf96" y="143.795721"/>
     <use style="fill:#0000ff;stroke:#0000ff;" x="203.899349" xlink:href="#mea3f4fcf96" y="141.466221"/>
     <use style="fill:#0000ff;stroke:#0000ff;" x="211.201237" xlink:href="#mea3f4fcf96" y="138.552469"/>
     <use style="fill:#0000ff;stroke:#0000ff;" x="218.502865" xlink:href="#mea3f4fcf96" y="132.508737"/>
     <use style="fill:#0000ff;stroke:#0000ff;" x="225.804492" xlink:href="#mea3f4fcf96" y="139.064077"/>
     <use style="fill:#0000ff;stroke:#0000ff;" x="233.10612" xlink:href="#mea3f4fcf96" y="134.533419"/>
     <use style="fill:#0000ff;stroke:#0000ff;" x="240.408008" xlink:href="#mea3f4fcf96" y="128.887108"/>
     <use style="fill:#0000ff;stroke:#0000ff;" x="247.709635" xlink:href="#mea3f4fcf96" y="127.02998"/>
     <use style="fill:#0000ff;stroke:#0000ff;" x="255.011263" xlink:href="#mea3f4fcf96" y="122.453597"/>
     <use style="fill:#0000ff;stroke:#0000ff;" x="262.313151" xlink:href="#mea3f4fcf96" y="121.482716"/>
     <use style="fill:#0000ff;stroke:#0000ff;" x="269.614779" xlink:href="#mea3f4fcf96" y="119.009574"/>
     <use style="fill:#0000ff;stroke:#0000ff;" x="276.916406" xlink:href="#mea3f4fcf96" y="119.754208"/>
     <use style="fill:#0000ff;stroke:#0000ff;" x="284.218294" xlink:href="#mea3f4fcf96" y="122.069017"/>
     <use style="fill:#0000ff;stroke:#0000ff;" x="291.519922" xlink:href="#mea3f4fcf96" y="117.786007"/>
     <use style="fill:#0000ff;stroke:#0000ff;" x="298.821549" xlink:href="#mea3f4fcf96" y="121.257036"/>
     <use style="fill:#0000ff;stroke:#0000ff;" x="306.123177" xlink:href="#mea3f4fcf96" y="115.415536"/>
     <use style="fill:#0000ff;stroke:#0000ff;" x="313.425065" xlink:href="#mea3f4fcf96" y="119.433536"/>
     <use style="fill:#0000ff;stroke:#0000ff;" x="320.726693" xlink:href="#mea3f4fcf96" y="117.206872"/>
     <use style="fill:#0000ff;stroke:#0000ff;" x="328.02832" xlink:href="#mea3f4fcf96" y="117.15085"/>
     <use style="fill:#0000ff;stroke:#0000ff;" x="335.330208" xlink:href="#mea3f4fcf96" y="116.533264"/>
     <use style="fill:#0000ff;stroke:#0000ff;" x="342.631836" xlink:href="#mea3f4fcf96" y="110.072367"/>
     <use style="fill:#0000ff;stroke:#0000ff;" x="349.933463" xlink:href="#mea3f4fcf96" y="114.379255"/>
     <use style="fill:#0000ff;stroke:#0000ff;" x="357.235091" xlink:href="#mea3f4fcf96" y="111.972428"/>
     <use style="fill:#0000ff;stroke:#0000ff;" x="364.536979" xlink:href="#mea3f4fcf96" y="108.927615"/>
     <use style="fill:#0000ff;stroke:#0000ff;" x="371.838607" xlink:href="#mea3f4fcf96" y="106.218676"/>
     <use style="fill:#0000ff;stroke:#0000ff;" x="379.140234" xlink:href="#mea3f4fcf96" y="106.760061"/>
     <use style="fill:#0000ff;stroke:#0000ff;" x="386.442122" xlink:href="#mea3f4fcf96" y="103.231507"/>
     <use style="fill:#0000ff;stroke:#0000ff;" x="393.74375" xlink:href="#mea3f4fcf96" y="42.072727"/>
    </g>
   </g>
   <g id="line2d_11">
    <path clip-path="url(#paf9bc049bc)" d="M 72.46875 217.927273 
L 79.770378 214.790899 
L 87.072266 211.654412 
L 94.373893 208.518038 
L 101.675521 205.381664 
L 108.977148 202.24529 
L 116.279037 199.108804 
L 123.580664 195.97243 
L 130.882292 192.836056 
L 138.18418 189.69957 
L 145.485807 186.563195 
L 152.787435 183.426821 
L 160.089323 180.290335 
L 167.390951 177.153961 
L 174.692578 174.017587 
L 181.994206 170.881213 
L 189.296094 167.744727 
L 196.597721 164.608352 
L 203.899349 161.471978 
L 211.201237 158.335492 
L 218.502865 155.199118 
L 225.804492 152.062744 
L 233.10612 148.92637 
L 240.408008 145.789884 
L 247.709635 142.653509 
L 255.011263 139.517135 
L 262.313151 136.380649 
L 269.614779 133.244275 
L 276.916406 130.107901 
L 284.218294 126.971415 
L 291.519922 123.835041 
L 298.821549 120.698666 
L 306.123177 117.562292 
L 313.425065 114.425806 
L 320.726693 111.289432 
L 328.02832 108.153058 
L 335.330208 105.016572 
L 342.631836 101.880198 
L 349.933463 98.743824 
L 357.235091 95.607449 
L 364.536979 92.470963 
L 371.838607 89.334589 
L 379.140234 86.198215 
L 386.442122 83.061729 
L 393.74375 79.925355 
" style="fill:none;stroke:#ff0000;stroke-linecap:square;stroke-width:1.5;"/>
   </g>
   <g id="patch_3">
    <path d="M 56.405 226.72 
L 56.405 33.28 
" style="fill:none;stroke:#000000;stroke-linecap:square;stroke-linejoin:miter;stroke-width:0.8;"/>
   </g>
   <g id="patch_4">
    <path d="M 409.8075 226.72 
L 409.8075 33.28 
" style="fill:none;stroke:#000000;stroke-linecap:square;stroke-linejoin:miter;stroke-width:0.8;"/>
   </g>
   <g id="patch_5">
    <path d="M 56.405 226.72 
L 409.8075 226.72 
" style="fill:none;stroke:#000000;stroke-linecap:square;stroke-linejoin:miter;stroke-width:0.8;"/>
   </g>
   <g id="patch_6">
    <path d="M 56.405 33.28 
L 409.8075 33.28 
" style="fill:none;stroke:#000000;stroke-linecap:square;stroke-linejoin:miter;stroke-width:0.8;"/>
   </g>
   <g id="text_12">
    <text style="font-family:DejaVu Sans;font-size:12px;font-style:normal;font-weight:normal;text-anchor:middle;" transform="rotate(-0, 233.10625, 27.28)" x="233.10625" y="27.28">4.4.4M1002_bs_bcexp_bead4.2_dc_trackmate.csv_track1</text>
   </g>
   <g id="legend_1">
    <g id="patch_7">
     <path d="M 67.605 116.535 
L 219.735 116.535 
Q 222.935 116.535 222.935 113.335 
L 222.935 44.48 
Q 222.935 41.28 219.735 41.28 
L 67.605 41.28 
Q 64.405 41.28 64.405 44.48 
L 64.405 113.335 
Q 64.405 116.535 67.605 116.535 
z
" style="fill:#ffffff;opacity:0.8;stroke:#cccccc;stroke-linejoin:miter;"/>
    </g>
    <g id="line2d_12"/>
    <g id="line2d_13">
     <g>
      <use style="fill:#0000ff;stroke:#0000ff;" x="86.805" xlink:href="#mea3f4fcf96" y="54.2375"/>
     </g>
    </g>
    <g id="text_13">
     <text style="font-family:DejaVu Sans;font-size:16px;font-style:normal;font-weight:normal;text-anchor:start;" transform="rotate(-0, 115.605, 59.8375)" x="115.605" y="59.8375">original data</text>
    </g>
    <g id="line2d_14">
     <path d="M 70.805 77.7225 
L 102.805 77.7225 
" style="fill:none;stroke:#ff0000;stroke-linecap:square;stroke-width:1.5;"/>
    </g>
    <g id="line2d_15"/>
    <g id="text_14">
     <text style="font-family:DejaVu Sans;font-size:16px;font-style:normal;font-weight:normal;text-anchor:start;" transform="rotate(-0, 115.605, 83.3225)" x="115.605" y="83.3225">fitted line</text>
    </g>
    <g id="line2d_16">
     <path d="M 70.805 101.2075 
L 102.805 101.2075 
" style="fill:none;stroke:#000000;stroke-width:1.5;"/>
    </g>
    <g id="text_15">
     <text style="font-family:DejaVu Sans;font-size:16px;font-style:normal;font-weight:normal;text-anchor:start;" transform="rotate(-0, 115.605, 106.8075)" x="115.605" y="106.8075">inflection</text>
    </g>
   </g>
  </g>
 </g>
 <defs>
  <clipPath id="paf9bc049bc">
   <rect height="193.44" width="353.4025" x="56.405" y="33.28"/>
  </clipPath>
 </defs>
</svg>
